<svg xmlns="http://www.w3.org/2000/svg" xmlns:xlink="http://www.w3.org/1999/xlink" version="1.1" x="0px" y="0px" viewBox="0 0 100 125" style="enable-background:new 0 0 100 100;" xml:space="preserve"><path d="M24.1,47.1c0,3.4,0.6,6.7,1.7,9.7c-1.1-0.2-2.2-0.5-3.4-0.9c-3.9-1.4-8.3-4.1-11.7-9.4c-3.6-2.4-5-4-5.1-4.1l-0.1-0.1l0-0.2  c0-0.1-0.1-2.7,0.3-4.5c0.6-2.6,1.5-4.8,2.7-6.5c1.5-2.1,3.5-4,4.7-4.8c0.5-0.4,1.3-0.9,2.1-1.5c0.9-0.7,2-1.4,2.9-2.1  c1.7-1.2,2.9-2.8,3.3-3.4c0.4-0.5,0.7-1.3,1.1-2.1l0-0.1c0.4-0.8,0.7-1.6,1.9-2c1.2-0.5,2.3,0,2.5,0.1l9,3.2  c0.4,0.2,0.5,0.6,0.6,0.9c0.2,0.5-0.2,1-0.2,1.1l-1.4,4c0,0.1-0.2,0.7-0.7,0.9c-0.5,0.2-1,0-1,0c0.5-1.4,1.1-3.1,1.7-4.6  c0,0,0.2-0.5,0-0.9c-0.1-0.3-0.4,0.7-0.4,0.7c-0.4,1.1-1.6,4.5-2,5.4c-0.6,0.5-1.5,0.2-1.5,0.2c0.5-1.4,1.1-3,1.6-4.4  c0,0,0.2-0.6,0-1.1c-0.1-0.3-0.4,0.9-0.4,0.9c-0.4,1-1.5,4.2-1.8,5.1c-0.4,0.6-1.3,0.4-1.3,0.3l-3.3-1.2c-0.1,0-0.6-0.2-0.7-0.8  c-0.1-0.6,0.5-2.4,0.7-2.7c0.3,0.1,3.1,1.2,3.1,1.2l-0.1,0.5c0,0.1,0.1,0.4,0.3,0.4c0.1,0,0.4,0.1,0.4,0l0.6-1.7  c0-0.1-0.2-0.3-0.3-0.3c-0.1,0-0.4,0-0.4,0.1l-0.2,0.6c-0.4-0.1-0.7-0.3-1.1-0.4c-1.4-0.5-2.3-1-2.5-1c-0.1,0.2-0.8,2-0.9,3  c0,0-0.3,0.7-0.3,0.9c-0.2,0.7-0.5,2-0.7,3.2c-0.2,0.9-0.4,1.8-0.6,2.5c-0.3,1.1-0.9,2.7-1.5,3.9c-0.7,0.3-1.7,0.8-2.5,1.6  c-0.1,0.1-0.1,0.3-0.1,0.4c0.1,0.1,0.3,0.1,0.4,0.1c1.1-1.1,3.1-1.8,3.2-1.8c1.2-0.3,2.7-0.3,4.2,0.3c1,0.4,1.8,0.8,2.4,1.4  C26,39.4,24.1,43.1,24.1,47.1z"/><path d="M68.6,38c-3.4-1.9-7.6-1.6-11.5,0.9c-3.5,2.2-6.3,5.6-6.4,5.6l-0.8,1l-0.8-1c0,0-2.8-3.4-6.3-5.6c-2.2-1.4-4.5-2.1-6.7-2.1  c-1.7,0-3.3,0.4-4.8,1.2c-3.3,1.8-5.2,5.2-5.2,9.1c0,18.7,20.3,31.3,23.7,33.3c3.5-2.1,23.8-15.2,23.8-33.3  C73.8,43.2,71.9,39.8,68.6,38z"/><path d="M95.5,42.2l0,0.2l-0.1,0.1c-0.1,0.1-1.4,1.7-5.1,4.1c-3.4,5.3-7.8,8-11.7,9.4c-1.6,0.6-3.2,0.9-4.5,1.1  c1.1-3.1,1.8-6.4,1.8-9.9c0-3.8-1.6-7.3-4.4-9.6c0.7-0.7,1.6-1.4,2.9-1.9c1.5-0.6,2.9-0.6,4.2-0.3c0,0,0,0,0,0c0,0,0,0,0,0  c0.5,0.1,2,0.7,3.1,1.8c0.1,0.1,0.2,0.1,0.2,0.1c0,0,0.1,0,0.1-0.1c0.1-0.1,0.1-0.2,0-0.3c-0.8-0.8-1.8-1.3-2.5-1.6  c-0.6-1.2-1.2-2.8-1.5-3.9c-0.2-0.7-0.4-1.6-0.6-2.5c-0.3-1.2-0.5-2.5-0.7-3.2c-0.1-0.2-0.3-0.9-0.3-0.9c-0.1-1-0.8-2.8-0.9-3  c-0.2,0.1-1.1,0.6-2.5,1c-0.4,0.1-0.7,0.2-1.1,0.4l-0.2-0.6c0-0.1-0.3-0.1-0.4-0.1c-0.1,0-0.3,0.2-0.3,0.3l0.6,1.7  c0,0.1,0.3,0.1,0.4,0.1c0.1,0,0.3-0.2,0.3-0.4L72,23.6c0,0,2.6-0.8,3.2-1.2c0.1,0.3,0.7,2.2,0.6,2.7c-0.1,0.5-0.6,0.7-0.7,0.8  l-3.3,1.2c-0.1,0-0.9,0.2-1.3-0.3c-0.3-0.9-1.4-4-1.8-5.1c0,0-0.3-1.2-0.4-0.9c-0.2,0.5,0,1,0,1.1c0.5,1.3,1.1,2.9,1.6,4.4  c0,0-0.8,0.4-1.5-0.2c-0.3-1-1.6-4.3-2-5.4c0,0-0.3-1-0.4-0.7c-0.2,0.5,0,0.9,0,0.9c0.5,1.5,1.2,3.2,1.7,4.6c0,0-1.2,0.3-1.7-0.9  l-1.4-4c-0.6-1.6,0.7-2.2,0.7-2.2l8.6-3c0.2-0.1,1.3-0.6,2.5-0.1c1.2,0.5,1.5,1.2,1.9,2l0,0.1c0.4,0.8,0.7,1.6,1.1,2.1  c0.4,0.5,1.6,2.2,3.3,3.4c1,0.7,2,1.4,3,2.1c0.8,0.6,1.6,1.1,2.1,1.5c1.2,0.8,3.2,2.8,4.7,4.8c1.2,1.7,2.1,3.8,2.7,6.5  C95.6,39.5,95.5,42,95.5,42.2z"/><text x="0" y="115" fill="#000000" font-size="5px" font-weight="bold" font-family="'Helvetica Neue', Helvetica, Arial-Unicode, Arial, Sans-serif">Created by Laymik</text><text x="0" y="120" fill="#000000" font-size="5px" font-weight="bold" font-family="'Helvetica Neue', Helvetica, Arial-Unicode, Arial, Sans-serif">from the Noun Project</text></svg>