<svg xmlns="http://www.w3.org/2000/svg" xmlns:xlink="http://www.w3.org/1999/xlink" version="1.1" x="0px" y="0px" viewBox="0 0 512 640" style="enable-background:new 0 0 512 512;" xml:space="preserve"><g><g><g><g><g><path d="M357.5,451h-203c-54.313,0-98.5-44.187-98.5-98.5V273c0-5.522,4.477-10,10-10s10,4.478,10,10c0,9.925,8.075,18,18,18       h324c9.925,0,18-8.075,18-18c0-5.522,4.478-10,10-10s10,4.478,10,10v79.5C456,406.813,411.813,451,357.5,451z M76,306.46v46.04       c0,43.285,35.215,78.5,78.5,78.5h203c43.285,0,78.5-35.215,78.5-78.5v-46.04c-5.36,2.896-11.492,4.54-18,4.54H94       C87.492,311,81.361,309.355,76,306.46z"/></g><g><path d="M226,411h-52.571c-25.912,0-49.99-12.876-64.409-34.442c-3.069-4.591-1.835-10.802,2.756-13.871       c4.59-3.067,10.802-1.836,13.871,2.756C136.346,381.445,154.208,391,173.429,391H226c5.523,0,10,4.478,10,10       S231.523,411,226,411z"/></g><g><path d="M106.392,351.001c-5.035,0-9.368-3.792-9.928-8.913c-0.308-2.81-0.464-5.676-0.464-8.517c0-5.522,4.477-10,10-10       s10,4.478,10,10c0,2.117,0.116,4.25,0.345,6.341c0.601,5.489-3.362,10.428-8.852,11.028       C107.123,350.981,106.755,351.001,106.392,351.001z"/></g><g><path d="M336,501H186c-5.523,0-10-4.478-10-10v-50c0-5.522,4.477-10,10-10h150c5.522,0,10,4.478,10,10v50       C346,496.522,341.522,501,336,501z M196,481h130v-30H196V481z"/></g><g><path d="M418,311h-72c-3.966,0-7.557-2.343-9.153-5.973s-0.898-7.86,1.781-10.784l73.287-79.967       c2.001-2.184,4.873-3.369,7.824-3.233C440.072,211.963,456,228.636,456,249v24C456,293.953,438.953,311,418,311z M368.729,291       H418c9.925,0,18-8.075,18-18v-24c0-8.18-5.422-15.102-12.941-17.282L368.729,291z"/></g><g><path d="M346,311H236c-4.122,0-7.821-2.529-9.318-6.37c-1.496-3.841-0.483-8.206,2.553-10.994l154.448-141.883       c0.025-0.023,0.051-0.046,0.076-0.069c7.655-6.89,17.542-10.684,27.838-10.684c11.12,0,21.573,4.329,29.436,12.19       c15.657,15.657,16.318,40.814,1.505,57.273l-89.165,97.293C351.479,309.823,348.804,311,346,311z M261.667,291h79.934       l86.132-93.983c7.634-8.483,7.291-21.551-0.843-29.684c-4.084-4.084-9.515-6.333-15.293-6.333       c-5.331,0-10.451,1.959-14.423,5.518L261.667,291z"/></g><g><g><path d="M105.419,171.354c-0.63,0-1.266-0.06-1.9-0.182c-21.501-4.158-38.972-18.106-46.733-37.312        c-7.758-19.199-4.881-41.365,7.696-59.294c2.265-3.228,6.215-4.825,10.085-4.076c21.502,4.158,38.971,18.102,46.729,37.301        c7.758,19.199,4.883,41.368-7.69,59.302C111.713,169.794,108.64,171.354,105.419,171.354z M77.348,91.887        c-5.621,11.075-6.43,23.561-2.018,34.479c4.415,10.924,13.672,19.346,25.408,23.408c5.621-11.08,6.428-23.569,2.016-34.489        C98.34,104.366,89.084,95.947,77.348,91.887z"/></g></g><g><path d="M166.005,311.003c-3.853,0-7.524-2.239-9.167-5.995l-70-160c-2.213-5.06,0.094-10.956,5.153-13.17       c5.062-2.214,10.957,0.093,13.17,5.153l70,160c2.213,5.06-0.094,10.956-5.153,13.169       C168.704,310.732,167.343,311.003,166.005,311.003z"/></g><g><path d="M136.003,240.987c-5.522,0-10-4.477-10-9.999l-0.002-30c-0.001-16.026,6.239-31.094,17.571-42.427       c11.332-11.333,26.399-17.575,42.426-17.576c2.652,0,5.196,1.053,7.071,2.929c1.875,1.875,2.929,4.418,2.929,7.071l0.001,30       c0.001,19.059-8.751,36.559-24.013,48.014C161.538,236.84,149.095,240.986,136.003,240.987z M175.999,162.237       c-6.858,1.758-13.146,5.326-18.284,10.464c-7.555,7.556-11.715,17.601-11.714,28.285l0.001,18.748       c5.019-1.288,9.745-3.554,13.979-6.732c10.181-7.641,16.02-19.311,16.019-32.017L175.999,162.237z"/></g><g><path d="M236,311H94c-20.953,0-38-17.047-38-38v-24c0-5.036,0.976-9.938,2.9-14.57c1.191-2.868,3.647-5.019,6.647-5.823       c2.999-0.804,6.201-0.168,8.667,1.719c7.019,5.375,15.411,8.215,24.271,8.215c8.078,0,15.885-2.442,22.446-6.886l-3.578-3.153       c-3.121-2.75-4.213-7.145-2.744-11.036c1.47-3.892,5.195-6.466,9.355-6.466h12.037c5.101,0,9.31,3.819,9.923,8.754       c5.046-1.285,9.801-3.558,14.056-6.751c1.731-1.3,3.838-2.002,6.003-2.002h157.101c4.122,0,7.821,2.529,9.317,6.37       c1.497,3.841,0.483,8.206-2.552,10.995l-87.085,80C240.92,310.06,238.505,311,236,311z M76,254.196V273c0,9.925,8.075,18,18,18       h138.104l65.314-60H169.156c-8.419,5.604-17.979,8.932-28.042,9.774c-11.227,11.331-26.572,17.766-42.627,17.767       C90.656,258.541,83.068,257.062,76,254.196z"/></g><g><path d="M98.488,258.541c-0.001,0-0.002,0-0.003,0c-13.294-0.001-25.891-4.266-36.429-12.335       c-1.244-0.954-2.272-1.792-3.236-2.641l-22.509-19.836c-4.144-3.651-4.542-9.97-0.891-14.114       c11.386-12.921,27.801-20.332,45.034-20.332c14.603,0,28.684,5.322,39.65,14.986l22.507,19.834       c1.99,1.753,3.202,4.226,3.369,6.873c0.167,2.647-0.724,5.252-2.478,7.242C132.12,251.133,115.713,258.541,98.488,258.541z        M57.991,216.176l14.05,12.382c0.611,0.538,1.303,1.101,2.175,1.769c7.016,5.372,15.409,8.213,24.27,8.213       c0.001,0,0.001,0,0.002,0c8.076,0,15.883-2.442,22.443-6.885l-14.05-12.382c-7.311-6.442-16.696-9.991-26.427-9.991       C72.37,209.283,64.556,211.728,57.991,216.176z"/></g><g><path d="M476,501H36c-5.523,0-10-4.478-10-10s4.477-10,10-10h440c5.522,0,10,4.478,10,10S481.522,501,476,501z"/></g><g><path d="M291,161c-13.785,0-25-11.215-25-25s11.215-25,25-25s25,11.215,25,25S304.785,161,291,161z M291,131       c-2.757,0-5,2.243-5,5s2.243,5,5,5s5-2.243,5-5S293.757,131,291,131z"/></g><g><path d="M436,71c-16.542,0-30-13.458-30-30s13.458-30,30-30s30,13.458,30,30S452.542,71,436,71z M436,31       c-5.514,0-10,4.486-10,10s4.486,10,10,10s10-4.486,10-10S441.514,31,436,31z"/></g><g><path d="M211,101c-19.299,0-35-15.701-35-35s15.701-35,35-35s35,15.701,35,35S230.299,101,211,101z M211,51       c-8.271,0-15,6.729-15,15s6.729,15,15,15s15-6.729,15-15S219.271,51,211,51z"/></g></g><g><path d="M256.313,411h-0.625c-5.523,0-10-4.478-10-10s4.477-10,10-10h0.625c5.522,0,10,4.478,10,10S261.835,411,256.313,411z"/></g><g><path d="M286,411h-0.625c-5.522,0-10-4.478-10-10s4.478-10,10-10H286c5.522,0,10,4.478,10,10S291.522,411,286,411z"/></g></g></g></g><text x="0" y="527" fill="#000000" font-size="5px" font-weight="bold" font-family="'Helvetica Neue', Helvetica, Arial-Unicode, Arial, Sans-serif">Created by Flatart</text><text x="0" y="532" fill="#000000" font-size="5px" font-weight="bold" font-family="'Helvetica Neue', Helvetica, Arial-Unicode, Arial, Sans-serif">from the Noun Project</text></svg>